# xmcd
#
# Track frame offsets:
#	150
#	13884
#	23781
#	37576
#	49530
#	57185
#	71147
#	85742
#	97304
#	110538
#	120748
#	133411
#	143225
#	157437
#	172252
#	199720
#	213841
#	226965
#	241255
#	254603
#
# Disc length: 3556 seconds
#
# Revision: 0
# Processed by: cddbd v1.5.2PL0 Copyright (c) Steve Scherf et al.
# Submitted via: EZCDAudioConverter 2.1.7.1
#
DISCID=280de214
DTITLE=Les Baxter - Ritual Of The Savage • The Passions
DYEAR=1900
DGENRE=
TTITLE0=Busy Port
TTITLE1=Sophisticated Savage
TTITLE2=Jungle River Boat
TTITLE3=Jungle Flower
TTITLE4=Barquita
TTITLE5=Stone God
TTITLE6=Quiet Village
TTITLE7=Jungle Jalopy
TTITLE8=Coronation
TTITLE9=Love Dance
TTITLE10=Kinkajou
TTITLE11=The Ritual
TTITLE12=Bacoa
TTITLE13=Despair
TTITLE14=Ecstacy
TTITLE15=Hate
TTITLE16=Lust
TTITLE17=Terror
TTITLE18=Jealousy
TTITLE19=Joy
EXTD=
EXTT0=
EXTT1=
EXTT2=
EXTT3=
EXTT4=
EXTT5=
EXTT6=
EXTT7=
EXTT8=
EXTT9=
EXTT10=
EXTT11=
EXTT12=
EXTT13=
EXTT14=
EXTT15=
EXTT16=
EXTT17=
EXTT18=
EXTT19=
PLAYORDER=
